<svg xmlns="http://www.w3.org/2000/svg" width="39" height="41" viewBox="0 0 39 41" fill="none">
  <g clip-path="url(#clip0_308_3720)">
    <path d="M18.8892 12.7034H34.9063C35.4437 12.7036 35.9759 12.5905 36.4725 12.3704C36.9691 12.1503 37.4203 11.8275 37.8005 11.4205C38.1806 11.0135 38.4822 10.5303 38.688 9.99836C38.8939 9.46646 38.9999 8.89633 39 8.32053V4.38172C38.9999 3.80598 38.8939 3.2359 38.688 2.70406C38.4822 2.17223 38.1806 1.68905 37.8004 1.28214C37.4203 0.875233 36.969 0.552564 36.4724 0.332569C35.9758 0.112575 35.4436 -0.000432969 34.9063 1.24656e-06H14.8921V18.5097L18.8892 12.7034ZM19.1627 8.00984V4.69352H34.0733C34.2722 4.69411 34.4627 4.77906 34.6032 4.9298C34.7437 5.08054 34.8227 5.28478 34.823 5.49781V7.20555C34.8227 7.41858 34.7437 7.62282 34.6032 7.77356C34.4627 7.92429 34.2722 8.00925 34.0733 8.00984H19.1627Z" fill="#1897D8"/>
    <path d="M27.1404 36.5456C27.1403 37.1214 27.2461 37.6916 27.4518 38.2236C27.6576 38.7556 27.9592 39.2388 28.3394 39.6458C28.7196 40.0528 29.171 40.3754 29.6677 40.5953C30.1644 40.8152 30.6967 40.928 31.2341 40.9273H34.9063C35.4436 40.9277 35.9758 40.8147 36.4724 40.5947C36.969 40.3748 37.4202 40.0521 37.8004 39.6452C38.1806 39.2383 38.4822 38.7551 38.688 38.2232C38.8938 37.6914 38.9999 37.1213 39 36.5456V15.1019H21.7242L27.1383 19.3845L27.1404 36.5456ZM34.6152 19.6776V35.6532C34.6152 35.7587 34.5958 35.8633 34.5581 35.9608C34.5203 36.0583 34.465 36.1469 34.3953 36.2215C34.3256 36.2961 34.2428 36.3552 34.1518 36.3955C34.0607 36.4358 33.9631 36.4565 33.8646 36.4563H32.2717C32.0729 36.4561 31.8823 36.3714 31.7416 36.2208C31.6009 36.0703 31.5216 35.8662 31.521 35.6532V19.6776H34.6152Z" fill="#1897D8"/>
    <path d="M24.1048 22.4926L20.1077 28.2967H4.09373C3.00846 28.2964 1.96751 28.7579 1.19982 29.5798C0.432122 30.4017 0.00054533 31.5167 0 32.6795L0 36.6183C0.000270013 37.194 0.106372 37.764 0.312247 38.2958C0.518123 38.8275 0.81974 39.3107 1.19988 39.7175C1.58002 40.1244 2.03123 40.4471 2.52776 40.6671C3.02429 40.8872 3.55641 41.0003 4.09373 41H24.1048V22.4926ZM4.9205 36.3065C4.82219 36.3062 4.7249 36.2852 4.63418 36.2446C4.54345 36.204 4.46108 36.1447 4.39175 36.07C4.32243 35.9953 4.26751 35.9067 4.23014 35.8093C4.19277 35.7119 4.17367 35.6075 4.17394 35.5022V33.7945C4.17367 33.6891 4.19277 33.5848 4.23014 33.4874C4.26751 33.3899 4.32243 33.3013 4.39175 33.2267C4.46108 33.152 4.54345 33.0926 4.63418 33.0521C4.7249 33.0115 4.82219 32.9905 4.9205 32.9902H19.8311V36.3065H4.9205Z" fill="#1897D8"/>
    <path d="M11.8606 4.45448C11.8604 3.87877 11.7542 3.30876 11.5484 2.77699C11.3425 2.24522 11.0409 1.7621 10.6607 1.35522C10.2806 0.948337 9.82939 0.625663 9.33286 0.405617C8.83633 0.185572 8.30421 0.072465 7.76689 0.0727545H4.09373C3.55641 0.072465 3.02429 0.185572 2.52776 0.405617C2.03123 0.625663 1.58002 0.948337 1.19988 1.35522C0.81974 1.7621 0.518123 2.24522 0.312247 2.77699C0.106372 3.30876 0.000270013 3.87877 0 4.45448L0 25.8981H17.2757L11.8627 21.6156L11.8606 4.45448ZM4.38064 21.3225V5.3436C4.38118 5.13057 4.46048 4.92645 4.60117 4.77592C4.74186 4.62538 4.93248 4.5407 5.13131 4.54041H6.7252C6.82373 4.54027 6.92132 4.56094 7.01239 4.60124C7.10346 4.64153 7.18622 4.70067 7.25594 4.77527C7.32566 4.84987 7.38097 4.93846 7.41871 5.03598C7.45645 5.1335 7.47587 5.23803 7.47587 5.3436V21.3192L4.38064 21.3225Z" fill="#1897D8"/>
    <path d="M15.7096 21.0602L19.8465 24.5836L23.2863 19.9397L19.1545 16.4207L15.7096 21.0602Z" fill="#1897D8"/>
  </g>
  <defs>
    <clipPath id="clip0_308_3720">
      <rect width="39" height="41" fill="white"/>
    </clipPath>
  </defs>
</svg>